<svg aria-hidden="true" style="position: absolute; width: 0; height: 0; overflow: hidden;" version="1.1" xmlns="http://www.w3.org/2000/svg" xmlns:xlink="http://www.w3.org/1999/xlink">
<defs>
<symbol id="icon-arrow-right" viewBox="0 0 47 32">
<path d="M46.206 17.754c0.831-0.831 0.831-2.179 0-3.010l-13.546-13.546c-0.831-0.831-2.179-0.831-3.010 0s-0.831 2.179 0 3.010l12.041 12.041-12.041 12.041c-0.831 0.831-0.831 2.179 0 3.010s2.179 0.831 3.010 0l13.546-13.546zM0 18.377h44.701v-4.257h-44.701v4.257z"></path>
</symbol>
<symbol id="icon-burger" viewBox="0 0 53 32">
<path d="M2 2.857c-0.789 0-1.429-0.64-1.429-1.429s0.64-1.429 1.429-1.429h48.571c0.789 0 1.429 0.64 1.429 1.429s-0.64 1.429-1.429 1.429h-48.571zM2 17.143c-0.789 0-1.429-0.64-1.429-1.429s0.64-1.429 1.429-1.429h48.571c0.789 0 1.429 0.64 1.429 1.429s-0.64 1.429-1.429 1.429h-48.571zM2 31.429c-0.789 0-1.429-0.64-1.429-1.429s0.64-1.429 1.429-1.429h48.571c0.789 0 1.429 0.64 1.429 1.429s-0.64 1.429-1.429 1.429h-48.571z"></path>
</symbol>
<symbol id="icon-down" viewBox="0 0 60 32">
<path stroke-linejoin="round" stroke-linecap="round" stroke-miterlimit="4" stroke-width="2" d="M1.2 1.2l28.8 28.8 28.8-28.8"></path>
</symbol>
<symbol id="icon-fb" viewBox="0 0 32 32">
<path d="M16.219 0.493c2.933 0.033 5.584 0.754 7.95 2.163 2.339 1.38 4.284 3.337 5.65 5.684 1.4 2.381 2.116 5.047 2.15 7.998-0.083 4.038-1.357 7.487-3.821 10.347s-5.62 4.629-8.887 5.307v-11.322h3.089l0.699-4.449h-4.677v-2.914c-0.026-0.604 0.165-1.198 0.539-1.673 0.374-0.477 1.033-0.727 1.976-0.752h2.824v-3.897c-0.041-0.013-0.425-0.065-1.154-0.155-0.826-0.097-1.657-0.148-2.489-0.155-1.883 0.009-3.372 0.54-4.467 1.593s-1.655 2.577-1.678 4.571v3.381h-3.559v4.449h3.559v11.322c-4.012-0.678-7.168-2.447-9.632-5.307s-3.738-6.309-3.821-10.347c0.033-2.951 0.75-5.618 2.15-7.998 1.366-2.347 3.311-4.304 5.65-5.684 2.367-1.408 5.017-2.129 7.95-2.163z"></path>
</symbol>
<symbol id="icon-insta" viewBox="0 0 32 32">
<path d="M16.315 32c-0.106 0-0.212 0-0.319-0-2.508 0.006-4.826-0.058-7.080-0.195-2.066-0.126-3.953-0.84-5.455-2.065-1.45-1.182-2.44-2.78-2.942-4.75-0.438-1.715-0.461-3.398-0.483-5.026-0.016-1.168-0.033-2.552-0.036-3.96 0.003-1.414 0.020-2.798 0.036-3.966 0.022-1.628 0.045-3.311 0.483-5.026 0.503-1.97 1.493-3.568 2.942-4.75 1.502-1.225 3.389-1.939 5.455-2.065 2.254-0.137 4.572-0.201 7.086-0.195 2.509-0.005 4.826 0.058 7.080 0.195 2.066 0.126 3.953 0.84 5.455 2.065 1.45 1.182 2.44 2.781 2.942 4.75 0.438 1.715 0.461 3.398 0.483 5.026 0.016 1.168 0.033 2.552 0.036 3.96v0.006c-0.003 1.408-0.020 2.792-0.036 3.96-0.022 1.628-0.045 3.311-0.483 5.026-0.503 1.97-1.492 3.568-2.942 4.75-1.502 1.225-3.389 1.939-5.455 2.065-2.158 0.131-4.376 0.195-6.767 0.195zM15.996 29.499c2.468 0.006 4.733-0.056 6.934-0.19 1.563-0.095 2.917-0.602 4.027-1.507 1.026-0.837 1.732-1.991 2.1-3.431 0.364-1.428 0.385-2.96 0.405-4.442 0.016-1.16 0.032-2.535 0.036-3.929-0.003-1.394-0.020-2.769-0.036-3.929-0.020-1.482-0.041-3.015-0.405-4.443-0.367-1.44-1.074-2.594-2.1-3.431-1.11-0.905-2.465-1.412-4.027-1.507-2.201-0.134-4.467-0.196-6.928-0.19-2.467-0.006-4.733 0.056-6.934 0.19-1.563 0.095-2.917 0.602-4.027 1.507-1.026 0.837-1.732 1.991-2.1 3.431-0.364 1.428-0.385 2.96-0.406 4.443-0.016 1.161-0.032 2.537-0.036 3.932 0.003 1.389 0.020 2.765 0.036 3.926 0.020 1.482 0.041 3.015 0.406 4.442 0.367 1.44 1.074 2.594 2.1 3.431 1.11 0.905 2.465 1.412 4.027 1.507 2.201 0.134 4.467 0.197 6.928 0.19zM15.937 23.812c-4.308 0-7.812-3.505-7.812-7.813s3.505-7.812 7.812-7.812c4.308 0 7.813 3.505 7.813 7.812s-3.505 7.813-7.813 7.813zM15.937 10.687c-2.929 0-5.312 2.383-5.312 5.312s2.383 5.313 5.312 5.313c2.929 0 5.313-2.383 5.313-5.313s-2.383-5.312-5.313-5.312zM24.624 5.687c-1.035 0-1.875 0.839-1.875 1.875s0.84 1.875 1.875 1.875c1.036 0 1.875-0.839 1.875-1.875s-0.839-1.875-1.875-1.875z"></path>
</symbol>
<symbol id="icon-left" viewBox="0 0 19 32">
<path stroke-linejoin="round" stroke-linecap="round" stroke-miterlimit="4" stroke-width="1.6" d="M16.873 1.891l-14.545 14.545 14.545 14.546"></path>
</symbol>
<symbol id="icon-location" viewBox="0 0 23 32">
<path d="M0.483 11.25c0 5.557 4.243 11.586 7.986 16.797 0.89 1.238 1.742 2.423 2.484 3.536 0.174 0.261 0.467 0.418 0.78 0.418s0.606-0.157 0.78-0.418c0.742-1.112 1.594-2.298 2.484-3.536 3.744-5.21 7.986-11.24 7.986-16.797 0-6.204-5.046-11.25-11.25-11.25s-11.25 5.046-11.25 11.25zM17.358 11.25c0 3.102-2.523 5.625-5.625 5.625s-5.625-2.523-5.625-5.625c0-3.102 2.523-5.625 5.625-5.625s5.625 2.523 5.625 5.625z"></path>
<path d="M11.733 15c2.071 0 3.75-1.679 3.75-3.75s-1.679-3.75-3.75-3.75-3.75 1.679-3.75 3.75c0 2.071 1.679 3.75 3.75 3.75z"></path>
</symbol>
<symbol id="icon-Logo" viewBox="0 0 163 32">
<path d="M42.132 8.555v18.686h-3.52v-18.686h-5.753v-2.991h14.996v2.991h-5.723z"></path>
<path d="M51.005 15.44c0.345-0.928 0.799-1.614 1.361-2.058 0.572-0.444 1.277-0.666 2.115-0.666 0.454 0 0.897 0.054 1.331 0.163 0.444 0.109 0.877 0.267 1.301 0.474l-1.154 2.724c-0.276-0.197-0.577-0.341-0.902-0.429-0.315-0.099-0.67-0.148-1.065-0.148-1.065 0-1.829 0.429-2.292 1.288-0.463 0.849-0.695 2.28-0.695 4.294v6.16h-3.209v-14.066h3.209v2.265z"></path>
<path d="M72.139 27.241h-3.209v-1.821c-0.572 0.809-1.242 1.412-2.011 1.806-0.759 0.395-1.632 0.592-2.618 0.592-1.982 0-3.544-0.676-4.688-2.029-1.134-1.362-1.701-3.223-1.701-5.582 0-2.241 0.582-4.047 1.745-5.419 1.163-1.382 2.682-2.073 4.555-2.073 1.144 0 2.12 0.242 2.928 0.726 0.818 0.474 1.415 1.16 1.79 2.058v-2.295h3.209v14.037zM69.019 20.178c0-1.451-0.34-2.581-1.020-3.391-0.67-0.809-1.612-1.214-2.825-1.214s-2.169 0.42-2.869 1.259c-0.69 0.829-1.035 1.984-1.035 3.465 0 1.491 0.335 2.64 1.006 3.45s1.617 1.214 2.84 1.214c1.154 0 2.090-0.439 2.81-1.318 0.73-0.879 1.094-2.033 1.094-3.465z"></path>
<path d="M81.501 28.085l-7.35-14.881h3.505l3.061 7.063c0.099 0.217 0.217 0.543 0.355 0.977s0.281 0.953 0.429 1.555c0.099-0.424 0.212-0.844 0.34-1.259 0.138-0.424 0.301-0.849 0.488-1.273l3.046-7.063h3.491l-7.366 14.881z"></path>
<path d="M104.394 20.696h-11.21c0.079 1.313 0.469 2.339 1.169 3.080 0.7 0.73 1.631 1.096 2.795 1.096 1.035 0 1.898-0.217 2.588-0.651s1.292-1.135 1.805-2.103l2.706 1.51c-0.788 1.412-1.764 2.463-2.928 3.154s-2.529 1.036-4.097 1.036c-2.248 0-4.038-0.686-5.368-2.058s-1.997-3.203-1.997-5.493c0-2.201 0.685-4.008 2.056-5.419 1.38-1.421 3.15-2.132 5.309-2.132 2.258 0 4.018 0.647 5.28 1.94s1.893 3.104 1.893 5.434v0.607zM101.067 18.535c-0.129-1.007-0.513-1.772-1.154-2.295-0.641-0.533-1.518-0.8-2.632-0.8-1.055 0-1.903 0.257-2.543 0.77s-1.090 1.288-1.346 2.325h7.676z"></path>
<path d="M107.9 27.241v-22.95h3.209v22.95h-3.209z"></path>
<path d="M115.856 27.241v-22.95h3.21v22.95h-3.21z"></path>
<path d="M123.384 7.134c0-0.543 0.198-1.012 0.592-1.407 0.404-0.395 0.882-0.592 1.434-0.592 0.572 0 1.045 0.192 1.42 0.577 0.385 0.375 0.577 0.849 0.577 1.421s-0.192 1.056-0.577 1.451c-0.385 0.385-0.858 0.577-1.42 0.577-0.552 0-1.030-0.197-1.434-0.592-0.394-0.405-0.592-0.883-0.592-1.436zM123.813 27.241v-14.037h3.209v14.037h-3.209z"></path>
<path d="M144.814 27.241h-3.21v-1.821c-0.572 0.809-1.242 1.412-2.011 1.806-0.759 0.395-1.632 0.592-2.618 0.592-1.982 0-3.544-0.676-4.688-2.029-1.134-1.362-1.701-3.223-1.701-5.582 0-2.241 0.582-4.047 1.745-5.419 1.163-1.382 2.682-2.073 4.554-2.073 1.144 0 2.12 0.242 2.929 0.726 0.818 0.474 1.415 1.16 1.789 2.058v-2.295h3.21v14.037zM141.693 20.178c0-1.451-0.34-2.581-1.021-3.391-0.671-0.809-1.612-1.214-2.825-1.214s-2.169 0.42-2.869 1.259c-0.69 0.829-1.035 1.984-1.035 3.465 0 1.491 0.335 2.64 1.005 3.45s1.617 1.214 2.84 1.214c1.154 0 2.090-0.439 2.81-1.318 0.729-0.879 1.094-2.033 1.094-3.465z"></path>
<path d="M149.25 27.241v-14.037h3.017v2.295c0.641-0.967 1.395-1.673 2.263-2.117s1.923-0.666 3.165-0.666c1.045 0 1.933 0.168 2.662 0.503 0.739 0.326 1.317 0.814 1.731 1.466 0.246 0.385 0.424 0.834 0.532 1.347s0.163 1.412 0.163 2.695v8.514h-3.239v-7.211c0-1.846-0.227-3.070-0.68-3.672-0.444-0.612-1.237-0.918-2.381-0.918-0.749 0-1.419 0.138-2.011 0.415-0.582 0.276-1.040 0.666-1.375 1.17-0.237 0.336-0.404 0.77-0.503 1.303-0.088 0.523-0.133 1.362-0.133 2.517v6.396h-3.21z"></path>
<path d="M10.047 23.129l4.116 4.057 4.116-4.057-4.116-4.057-4.116 4.057zM14.163 3.437v0.006c-1.178 0-2.356 0.443-3.253 1.328l-0.004-0.004c-0.895 0.885-1.345 2.048-1.345 3.211 0 1.165 0.448 2.327 1.341 3.207h0.006l3.256 3.207 3.254-3.207h0.006c0.899-0.887 1.349-2.048 1.349-3.207h-0.006c0-1.161-0.45-2.323-1.347-3.207-0.904-0.889-2.082-1.334-3.256-1.334zM20.652 25.467l-6.489 6.396-6.488-6.396-5.302 5.227-2.373-2.339 11.793-11.623-3.254-3.207 0.004-0.004c-1.558-1.534-2.335-3.541-2.335-5.542 0-2.003 0.778-4.009 2.331-5.54v-0.004c1.554-1.531 3.59-2.298 5.624-2.298v0.006c2.038 0 4.077 0.765 5.626 2.292 1.554 1.531 2.329 3.539 2.329 5.546h-0.006c0 2.005-0.776 4.011-2.327 5.542l0.004 0.004-3.253 3.205 11.791 11.623-2.373 2.339-5.302-5.227z"></path>
</symbol>
<symbol id="icon-pinterest" viewBox="0 0 32 32">
<path d="M32 16.48c0.24-9.16-7.12-16.6-16.24-16.48-8.76 0.12-15.84 7.36-15.76 16.12 0.040 6.28 3.72 11.68 9 14.28 0.32 0.16 0.68-0.080 0.64-0.44-0.040-1.040 0-2.12 0.2-3s1-4.24 1.52-6.44c0.24-1.080 0.28-2.2 0.080-3.28-0.080-0.36-0.12-0.76-0.12-1.24 0-2.36 1.36-4.12 3.080-4.12 1.44 0 2.16 1.080 2.16 2.4 0 1.44-0.92 3.64-1.4 5.68-0.4 1.68 0.84 3.080 2.52 3.080 3.040 0 5.36-3.2 5.36-7.8 0-4.080-2.92-6.92-7.12-6.92-4.84 0-7.68 3.64-7.68 7.4 0 1.48 0.56 3.040 1.28 3.88 0.12 0.16 0.16 0.32 0.12 0.48-0.12 0.52-0.4 1.68-0.48 1.92-0.080 0.32-0.24 0.36-0.56 0.24-2.12-1.040-3.48-4.16-3.48-6.64 0-5.36 3.88-10.28 11.24-10.28 5.88 0 10.48 4.2 10.48 9.84 0 5.88-3.68 10.56-8.84 10.56-1.36 0-2.64-0.56-3.4-1.32-0.24-0.24-0.64-0.12-0.72 0.2-0.28 1-0.68 2.68-0.84 3.2-0.24 0.96-0.76 2.080-1.32 3.080-0.16 0.24 0 0.6 0.28 0.64 1.32 0.32 2.68 0.52 4.080 0.48 8.48-0.080 15.68-7.12 15.92-15.52z"></path>
</symbol>
<symbol id="icon-right" viewBox="0 0 18 32">
<path stroke-linejoin="round" stroke-linecap="round" stroke-miterlimit="4" stroke-width="3.0476" d="M2.217 29.506l13.853-13.853-13.853-13.853"></path>
</symbol>
<symbol id="icon-star" viewBox="0 0 33 32">
<path d="M16.667 0l5.15 10.433 11.517 1.683-8.333 8.117 1.967 11.467-10.3-5.417-10.3 5.417 1.967-11.467-8.333-8.117 11.517-1.683 5.15-10.433z"></path>
</symbol>
<symbol id="icon-twitter" viewBox="0 0 39 32">
<path d="M39.152 4.096c-1.44 0.624-2.928 1.056-4.512 1.248 1.632-0.96 2.88-2.496 3.456-4.368-1.536 0.912-3.216 1.536-4.992 1.92-1.44-1.536-3.504-2.496-5.76-2.496-4.368 0-7.872 3.552-7.872 7.872 0 0.624 0.048 1.2 0.192 1.776-6.528-0.288-12.288-3.456-16.176-8.208-2.784 4.992 0.336 9.12 2.4 10.512-1.248 0-2.496-0.384-3.552-0.96 0 3.888 2.736 7.104 6.288 7.824-0.768 0.24-2.496 0.384-3.552 0.144 1.008 3.12 3.936 5.424 7.344 5.472-2.688 2.112-6.624 3.792-11.664 3.264 3.504 2.256 7.632 3.552 12.096 3.552 14.496 0 22.368-12 22.368-22.368 0-0.336 0-0.672-0.048-1.008 1.632-1.2 2.976-2.592 3.984-4.176z"></path>
</symbol>
</defs>
</svg>
